<svg width="24" height="25" viewBox="0 0 24 25" fill="none" xmlns="http://www.w3.org/2000/svg">
<path fill-rule="evenodd" clip-rule="evenodd" d="M20 1.5C21.6569 1.5 23 2.84315 23 4.5V20.5C23 22.1569 21.6569 23.5 20 23.5H4C2.34315 23.5 1 22.1569 1 20.5V4.5C1 2.84315 2.34315 1.5 4 1.5H20ZM20 3.5C20.5523 3.5 21 3.94772 21 4.5V20.5C21 21.0523 20.5523 21.5 20 21.5H15V14.4999H17.0762C17.5066 14.4999 17.8887 14.2245 18.0249 13.8161L18.4679 12.4871C18.6298 12.0014 18.2683 11.4999 17.7564 11.4999H15V9.49992C15 8.99992 15.5 8.49992 16 8.49992H18C18.5523 8.49992 19 8.0522 19 7.49992V6.81393C19 6.49091 18.7937 6.2013 18.4813 6.11887C17.1705 5.77295 16 5.77295 16 5.77295C13.5 5.77295 12 7.49992 12 8.99992V11.4999H10C9.44772 11.4999 9 11.9476 9 12.4999V13.4999C9 14.0522 9.44771 14.4999 10 14.4999H12V21.5H4C3.44772 21.5 3 21.0523 3 20.5V4.5C3 3.94772 3.44772 3.5 4 3.5H20Z" fill="#0F0F0F"/>
</svg>
