<svg width="24" height="25" viewBox="0 0 24 25" fill="none" xmlns="http://www.w3.org/2000/svg">
<path fill-rule="evenodd" clip-rule="evenodd" d="M12 18.5C15.3137 18.5 18 15.8137 18 12.5C18 9.18629 15.3137 6.5 12 6.5C8.68629 6.5 6 9.18629 6 12.5C6 15.8137 8.68629 18.5 12 18.5ZM12 16.5C14.2091 16.5 16 14.7091 16 12.5C16 10.2909 14.2091 8.5 12 8.5C9.79086 8.5 8 10.2909 8 12.5C8 14.7091 9.79086 16.5 12 16.5Z" fill="#0F0F0F"/>
<path d="M18 5.5C17.4477 5.5 17 5.94772 17 6.5C17 7.05228 17.4477 7.5 18 7.5C18.5523 7.5 19 7.05228 19 6.5C19 5.94772 18.5523 5.5 18 5.5Z" fill="#0F0F0F"/>
<path fill-rule="evenodd" clip-rule="evenodd" d="M1.65396 4.77606C1 6.05953 1 7.73969 1 11.1V13.9C1 17.2603 1 18.9405 1.65396 20.2239C2.2292 21.3529 3.14708 22.2708 4.27606 22.846C5.55953 23.5 7.23969 23.5 10.6 23.5H13.4C16.7603 23.5 18.4405 23.5 19.7239 22.846C20.8529 22.2708 21.7708 21.3529 22.346 20.2239C23 18.9405 23 17.2603 23 13.9V11.1C23 7.73969 23 6.05953 22.346 4.77606C21.7708 3.64708 20.8529 2.7292 19.7239 2.15396C18.4405 1.5 16.7603 1.5 13.4 1.5H10.6C7.23969 1.5 5.55953 1.5 4.27606 2.15396C3.14708 2.7292 2.2292 3.64708 1.65396 4.77606ZM13.4 3.5H10.6C8.88684 3.5 7.72225 3.50156 6.82208 3.5751C5.94524 3.64674 5.49684 3.77659 5.18404 3.93597C4.43139 4.31947 3.81947 4.93139 3.43597 5.68404C3.27659 5.99684 3.14674 6.44524 3.0751 7.32208C3.00156 8.22225 3 9.38684 3 11.1V13.9C3 15.6132 3.00156 16.7777 3.0751 17.6779C3.14674 18.5548 3.27659 19.0032 3.43597 19.316C3.81947 20.0686 4.43139 20.6805 5.18404 21.064C5.49684 21.2234 5.94524 21.3533 6.82208 21.4249C7.72225 21.4984 8.88684 21.5 10.6 21.5H13.4C15.1132 21.5 16.2777 21.4984 17.1779 21.4249C18.0548 21.3533 18.5032 21.2234 18.816 21.064C19.5686 20.6805 20.1805 20.0686 20.564 19.316C20.7234 19.0032 20.8533 18.5548 20.9249 17.6779C20.9984 16.7777 21 15.6132 21 13.9V11.1C21 9.38684 20.9984 8.22225 20.9249 7.32208C20.8533 6.44524 20.7234 5.99684 20.564 5.68404C20.1805 4.93139 19.5686 4.31947 18.816 3.93597C18.5032 3.77659 18.0548 3.64674 17.1779 3.5751C16.2777 3.50156 15.1132 3.5 13.4 3.5Z" fill="#0F0F0F"/>
</svg>
