<svg width="24" height="25" viewBox="0 0 24 25" fill="none" xmlns="http://www.w3.org/2000/svg">
<path fill-rule="evenodd" clip-rule="evenodd" d="M19.7829 4.41849C20.1314 4.3359 20.3744 4.25469 20.5735 4.16939C20.8525 4.04985 21.0839 3.90665 21.4493 3.66548C21.7564 3.4628 22.15 3.44515 22.474 3.61953C22.798 3.79391 23.0001 4.13214 23.0001 4.5001C23.0001 5.58104 22.8655 6.46697 22.5536 7.24665C22.2912 7.90245 21.9227 8.43511 21.4818 8.91992C21.2955 12.2831 20.322 14.9241 18.8337 16.9251C17.2912 18.999 15.2387 20.3271 13.0752 21.0708C10.918 21.8123 8.6387 21.978 6.59678 21.727C4.56824 21.4776 2.69312 20.806 1.38613 19.7894C1.0282 19.511 0.902389 19.0267 1.07959 18.6093C1.25678 18.1919 1.69264 17.946 2.14152 18.0101C3.42748 18.1939 4.66538 17.9015 5.68327 17.4834C5.48289 17.3744 5.29396 17.2564 5.11836 17.1349C4.19082 16.4927 3.44248 15.621 3.10564 14.9474C2.96626 14.6686 2.96482 14.3408 3.10175 14.0608C3.17239 13.9164 3.27569 13.7932 3.40111 13.6994C2.04685 12.5817 1.50007 11.0358 1.50007 10.0001C1.50007 9.69216 1.64194 9.4014 1.88467 9.21189C1.98672 9.13221 2.10182 9.07417 2.22316 9.03921C2.12182 8.74246 2.04318 8.44266 1.98323 8.15241C1.71747 6.86554 1.74106 5.41308 2.02992 4.25757C2.12877 3.86216 2.45772 3.5663 2.86136 3.50977C3.26501 3.45323 3.66257 3.64734 3.86625 4.00038C4.94376 5.86806 6.93123 7.00968 8.78094 7.68592C9.65057 8.00386 10.4561 8.20646 11.0597 8.33103C11.19 7.11043 11.5309 6.10384 12.0539 5.30435C12.744 4.24956 13.7065 3.62549 14.7402 3.34722C16.5228 2.86732 18.5009 3.41407 19.7829 4.41849ZM10.7485 10.3087C10.0634 10.1711 9.12179 9.94001 8.0942 9.56432C6.73698 9.06813 5.16096 8.29442 3.84079 7.09595C3.86442 7.3165 3.89797 7.53516 3.9419 7.7479C4.16315 8.81924 4.57427 9.41923 4.94728 9.60574C5.40349 9.83384 5.61492 10.3687 5.43795 10.8471C5.19835 11.4948 4.56817 11.548 3.99558 11.4048C4.45611 12.0953 5.28385 12.7837 6.66447 13.0138C7.14065 13.0931 7.49215 13.5014 7.49994 13.984C7.50772 14.4667 7.16956 14.8861 6.69618 14.9807L5.82572 15.1548C5.95888 15.2706 6.10307 15.3841 6.25678 15.4905C6.95369 15.973 7.65344 16.181 8.25753 16.03C8.70998 15.9169 9.18054 16.1316 9.3917 16.5474C9.60286 16.9632 9.49853 17.4698 9.14025 17.7684C8.49633 18.3044 7.74432 18.7344 6.99065 19.0914C6.63683 19.259 6.24142 19.4244 5.81197 19.57C6.14226 19.6404 6.48593 19.6983 6.84086 19.7419C8.61143 19.9596 10.5822 19.8129 12.425 19.1794C14.2615 18.5482 15.9591 17.4388 17.229 15.7315C18.4972 14.0265 19.3821 11.6669 19.5008 8.46315C19.5101 8.21091 19.6145 7.97154 19.793 7.79306C20.2427 7.34341 20.6142 6.82802 20.797 6.21455C20.4771 6.31427 20.1169 6.40059 19.6879 6.48261C19.3624 6.54483 19.0273 6.44181 18.793 6.20751C18.0285 5.44299 16.5165 4.94023 15.2601 5.27846C14.6687 5.43765 14.1312 5.78228 13.7276 6.3993C13.3154 7.02928 13.0001 8.01069 13.0001 9.50015C13.0001 9.78312 12.8802 10.0528 12.6702 10.2425C12.1722 10.692 11.3341 10.4263 10.7485 10.3087Z" fill="#0F0F0F"/>
</svg>
