<svg width="24" height="25" viewBox="0 0 24 25" fill="none" xmlns="http://www.w3.org/2000/svg">
<path fill-rule="evenodd" clip-rule="evenodd" d="M9.49614 7.63176C9.18664 7.4549 8.80639 7.45617 8.49807 7.63509C8.18976 7.81401 8 8.14353 8 8.5V16.5C8 16.8565 8.18976 17.186 8.49807 17.3649C8.80639 17.5438 9.18664 17.5451 9.49614 17.3682L16.4961 13.3682C16.8077 13.1902 17 12.8589 17 12.5C17 12.1411 16.8077 11.8098 16.4961 11.6318L9.49614 7.63176ZM13.9844 12.5L10 14.7768V10.2232L13.9844 12.5Z" fill="#0F0F0F"/>
<path fill-rule="evenodd" clip-rule="evenodd" d="M0 12.5C0 8.75027 0 6.8754 0.954915 5.56107C1.26331 5.1366 1.6366 4.76331 2.06107 4.45491C3.3754 3.5 5.25027 3.5 9 3.5H15C18.7497 3.5 20.6246 3.5 21.9389 4.45491C22.3634 4.76331 22.7367 5.1366 23.0451 5.56107C24 6.8754 24 8.75027 24 12.5C24 16.2497 24 18.1246 23.0451 19.4389C22.7367 19.8634 22.3634 20.2367 21.9389 20.5451C20.6246 21.5 18.7497 21.5 15 21.5H9C5.25027 21.5 3.3754 21.5 2.06107 20.5451C1.6366 20.2367 1.26331 19.8634 0.954915 19.4389C0 18.1246 0 16.2497 0 12.5ZM9 5.5H15C16.9194 5.5 18.1983 5.50275 19.1673 5.60773C20.0989 5.70866 20.504 5.88448 20.7634 6.07295C21.018 6.25799 21.242 6.48196 21.4271 6.73664C21.6155 6.99605 21.7913 7.40113 21.8923 8.33269C21.9973 9.30167 22 10.5806 22 12.5C22 14.4194 21.9973 15.6983 21.8923 16.6673C21.7913 17.5989 21.6155 18.004 21.4271 18.2634C21.242 18.518 21.018 18.742 20.7634 18.9271C20.504 19.1155 20.0989 19.2913 19.1673 19.3923C18.1983 19.4973 16.9194 19.5 15 19.5H9C7.08058 19.5 5.80167 19.4973 4.83269 19.3923C3.90113 19.2913 3.49605 19.1155 3.23664 18.9271C2.98196 18.742 2.75799 18.518 2.57295 18.2634C2.38448 18.004 2.20866 17.5989 2.10773 16.6673C2.00275 15.6983 2 14.4194 2 12.5C2 10.5806 2.00275 9.30167 2.10773 8.33269C2.20866 7.40113 2.38448 6.99605 2.57295 6.73664C2.75799 6.48196 2.98196 6.25799 3.23664 6.07295C3.49605 5.88448 3.90113 5.70866 4.83269 5.60773C5.80167 5.50275 7.08058 5.5 9 5.5Z" fill="#0F0F0F"/>
</svg>
