<svg width="24" height="22" viewBox="0 0 24 22" fill="none" xmlns="http://www.w3.org/2000/svg">
<path fill-rule="evenodd" clip-rule="evenodd" d="M3.48883 5.00387C2.76317 6.24787 2.52434 7.97403 2.9702 9.7575C3.13065 10.3992 3.59709 11.2243 4.33633 12.174C5.06122 13.1052 5.98646 14.0787 6.96642 15.0127C8.90951 16.8648 11.0007 18.4985 12.0001 19.254C12.9995 18.4985 15.0906 16.8648 17.0337 15.0127C18.0137 14.0787 18.9389 13.1052 19.6638 12.174C20.4031 11.2243 20.8695 10.3992 21.03 9.7575C21.4758 7.97403 21.237 6.24787 20.5113 5.00387C19.803 3.78965 18.6203 3 17.0001 3C15.5905 3 14.597 4.04228 13.8945 5.44721C13.557 6.12228 13.3276 6.80745 13.1824 7.33015C13.1103 7.58959 13.0603 7.80435 13.0287 7.95172C12.9168 8.47392 12.3144 8.5 12.0001 8.5C11.6858 8.5 11.0824 8.46905 10.9715 7.95172C10.9399 7.80436 10.8899 7.58959 10.8178 7.33015C10.6726 6.80745 10.4432 6.12229 10.1057 5.44722C9.40314 4.04228 8.40962 3 7.00004 3C5.37985 3 4.19712 3.78965 3.48883 5.00387ZM12.0001 4.77011C12.0342 4.69784 12.0694 4.62535 12.1057 4.55279C12.9032 2.95772 15.4096 0 18 0C20.3798 0 21.1972 2.21035 22.2389 3.99613C23.2632 5.75212 23.5244 8.02597 22.9702 10.2425C22.7077 11.2927 22.0355 12.3832 21.242 13.4025C20.4342 14.4402 19.4328 15.4891 18.4136 16.4605C16.3743 18.4042 14.1958 20.1022 13.1811 20.8683C12.4804 21.3974 11.5198 21.3974 10.8191 20.8683C9.80439 20.1022 7.62589 18.4042 5.58654 16.4605C4.56739 15.4891 3.56592 14.4402 2.75812 13.4025C1.96467 12.3832 1.29246 11.2927 1.02992 10.2425C0.475774 8.02597 0.736944 5.75213 1.76127 3.99613C2.80297 2.21035 4.12019 0 6.5 0C9.0904 0 11.097 2.95772 11.8945 4.55278C11.9308 4.62535 11.966 4.69784 12.0001 4.77011Z" fill="#0F0F0F"/>
</svg>
